<svg id="Layer_1" data-name="Layer 1" xmlns="http://www.w3.org/2000/svg" viewBox="0 0 235.44 53.36"><defs><style>.cls-1{fill:#fff;}.cls-2{fill:#393;}</style></defs><path class="cls-1" d="M221.71,41.54h12.84V37.23H226V11.46h-4.31Zm-15.63,0h12.84V37.23h-8.53V28.41h7.43V24.35h-7.43V15.52h8.53V11.46H206.08Zm-18,0h4.31V28.7H195l4,12.84h4.56L198.9,27.81a6.33,6.33,0,0,0,2.89-3,11.13,11.13,0,0,0,.82-4.5q0-8.82-7.6-8.83h-6.93Zm4.31-26h2.24a5,5,0,0,1,1.9.3,2.39,2.39,0,0,1,1.12.9,3.72,3.72,0,0,1,.53,1.48,15.6,15.6,0,0,1,0,4,3.93,3.93,0,0,1-.49,1.45,2.29,2.29,0,0,1-1,.91,4.37,4.37,0,0,1-1.82.32h-2.45Zm-23.45,26h4.31l1.27-6.46h5.87l1.27,6.46H186l-6.72-30.08h-3.59ZM179.59,31h-4.31l2.11-10.9h.09Zm-19.42-15.5h2.24a3.82,3.82,0,0,1,1.94.4,2.53,2.53,0,0,1,1,1.1,4.89,4.89,0,0,1,.38,1.65c0,.63.06,1.3.06,2s0,1.45-.06,2.07a4.13,4.13,0,0,1-.41,1.59,2.38,2.38,0,0,1-1,1,4.34,4.34,0,0,1-2,.38h-2.07Zm-4.31,26h4.31V29.8h2.2a8,8,0,0,0,3.88-.82,6.25,6.25,0,0,0,2.37-2.31,6.93,6.93,0,0,0,1-2.64,20.71,20.71,0,0,0,.23-3.4,17.46,17.46,0,0,0-.42-4.29,6.47,6.47,0,0,0-1.52-2.76,6,6,0,0,0-2.45-1.65,9.57,9.57,0,0,0-3.12-.47h-6.47ZM143,15.52h2.23a3.83,3.83,0,0,1,1.95.4,2.45,2.45,0,0,1,1,1.1,4.66,4.66,0,0,1,.38,1.65c0,.63.06,1.3.06,2s0,1.45-.06,2.07a4.13,4.13,0,0,1-.4,1.59,2.46,2.46,0,0,1-1.06,1,4.3,4.3,0,0,1-2,.38H143Zm-4.31,26H143V29.8h2.19a8.08,8.08,0,0,0,3.89-.82,6.33,6.33,0,0,0,2.37-2.31,7.28,7.28,0,0,0,1-2.64,21.88,21.88,0,0,0,.23-3.4,17.46,17.46,0,0,0-.42-4.29,6.47,6.47,0,0,0-1.52-2.76,6.05,6.05,0,0,0-2.45-1.65,9.63,9.63,0,0,0-3.13-.47h-6.46Zm-19.14,0h4.31l1.27-6.46H131l1.27,6.46h4.3l-6.71-30.08h-3.59ZM130.18,31h-4.31L128,20.12h.08ZM110.11,33H105.8v1.48a4,4,0,0,1-.25,1.48,2.4,2.4,0,0,1-.66.92,2.44,2.44,0,0,1-.89.49,3,3,0,0,1-.9.15,2.25,2.25,0,0,1-2-.89,4,4,0,0,1-.57-2.2V19a5.23,5.23,0,0,1,.53-2.52,2.18,2.18,0,0,1,2.13-1,2.33,2.33,0,0,1,1.94.93,3.48,3.48,0,0,1,.72,2.2v1.43h4.31V18.39a7.82,7.82,0,0,0-.53-2.89,6.71,6.71,0,0,0-1.46-2.28,6.48,6.48,0,0,0-2.19-1.48,7.13,7.13,0,0,0-2.75-.53,7.49,7.49,0,0,0-2.85.53,6.65,6.65,0,0,0-2.22,1.46,6.52,6.52,0,0,0-1.44,2.19,7.51,7.51,0,0,0-.5,2.75V34.7a7.93,7.93,0,0,0,.65,3.42,6.42,6.42,0,0,0,1.67,2.18,6.16,6.16,0,0,0,2.28,1.16,10,10,0,0,0,2.5.34,6.38,6.38,0,0,0,2.68-.57,7.25,7.25,0,0,0,2.17-1.52,7.08,7.08,0,0,0,1.46-2.22,6.9,6.9,0,0,0,.53-2.66ZM92.92,33H88.61v1.48a3.77,3.77,0,0,1-.26,1.48,2.49,2.49,0,0,1-.65.92,2.52,2.52,0,0,1-.89.49,3.09,3.09,0,0,1-.91.15,2.26,2.26,0,0,1-2.05-.89,4,4,0,0,1-.57-2.2V19a5.35,5.35,0,0,1,.53-2.52,2.18,2.18,0,0,1,2.13-1,2.34,2.34,0,0,1,2,.93,3.48,3.48,0,0,1,.72,2.2v1.43h4.31V18.39a7.82,7.82,0,0,0-.53-2.89,6.87,6.87,0,0,0-1.46-2.28,6.42,6.42,0,0,0-2.2-1.48A7.08,7.08,0,0,0,86,11.21a7.51,7.51,0,0,0-2.86.53,6.61,6.61,0,0,0-2.21,1.46,6.52,6.52,0,0,0-1.44,2.19A7.31,7.31,0,0,0,79,18.14V34.7a7.78,7.78,0,0,0,.66,3.42A6.18,6.18,0,0,0,81.3,40.3a6,6,0,0,0,2.28,1.16,9.82,9.82,0,0,0,2.49.34,6.35,6.35,0,0,0,2.68-.57,7,7,0,0,0,3.64-3.74,6.9,6.9,0,0,0,.53-2.66Zm-27-14.41a2.85,2.85,0,0,1,.87-2.3,3.21,3.21,0,0,1,4.1,0,2.88,2.88,0,0,1,.86,2.3V34.45a2.88,2.88,0,0,1-.86,2.3,3.21,3.21,0,0,1-4.1,0,2.85,2.85,0,0,1-.87-2.3ZM61.58,34.45a7.54,7.54,0,0,0,.64,3.23A6.79,6.79,0,0,0,63.88,40a7.13,7.13,0,0,0,2.33,1.37,7.4,7.4,0,0,0,5.19,0A7.13,7.13,0,0,0,73.73,40a7,7,0,0,0,1.67-2.28A7.69,7.69,0,0,0,76,34.45V18.56a7.73,7.73,0,0,0-.63-3.21,6.73,6.73,0,0,0-1.67-2.3,7.13,7.13,0,0,0-2.33-1.37,7.4,7.4,0,0,0-5.19,0,7.13,7.13,0,0,0-2.33,1.37,6.58,6.58,0,0,0-1.66,2.3,7.57,7.57,0,0,0-.64,3.21Z"/><path class="cls-2" d="M26.59,38.62,19.44,45.7a7.13,7.13,0,0,0,7.08,6.76h0l5.11,0h0a2,2,0,0,0,2-2h0l0-4.72-7.08-7.15M21.65.52a2,2,0,0,0-2,2l0,4.71,7.09,7.16,7.14-7.08A7.11,7.11,0,0,0,26.77.55h0l-5.11,0h0"/><path class="cls-2" d="M45.91,19.47l-7.15,7.09,7.08,7.14a7.12,7.12,0,0,0,6.76-7.07h0l0-5.1v0a2,2,0,0,0-2-2l-4.72,0M7.45,19.3A7.13,7.13,0,0,0,.69,26.38h0l0,5.1h0a2,2,0,0,0,2,2h0l4.71,0,7.16-7.08L7.45,19.3"/><path class="cls-2" d="M15.55,27.48,8.26,34.69h0A7.11,7.11,0,0,0,8.2,44.77h0l3.59,3.63a2,2,0,0,0,2.85,0h0l3.63-3.59h0l7.3-7.23-10-10.11M40.06,4a2,2,0,0,0-1.41.58h0L35,8.18l-7.3,7.23,10,10.12L45,18.31a7.13,7.13,0,0,0,.06-10.07h0L41.5,4.61A2,2,0,0,0,40.06,4"/><path class="cls-2" d="M13.39,6a7.12,7.12,0,0,0-5,2.06h0L4.75,11.65a2,2,0,0,0,0,2.85l3.59,3.63L34.84,44.89A7.12,7.12,0,0,0,44.9,45h0l3.63-3.59h0a2,2,0,0,0,0-2.85h0L45,34.88,18.46,8.12h0A7.08,7.08,0,0,0,13.39,6"/></svg>